<svg xmlns="http://www.w3.org/2000/svg" xmlns:xlink="http://www.w3.org/1999/xlink" width="500" zoomAndPan="magnify" viewBox="0 0 375 320.999992" height="428" preserveAspectRatio="xMidYMid meet" version="1.0"><defs><g/><clipPath id="0c6d57dd41"><path d="M 0 0 L 375 0 L 375 320.90625 L 0 320.90625 Z M 0 0 " clip-rule="nonzero"/></clipPath></defs><g clip-path="url(#0c6d57dd41)"><path fill="#f7f9fb" d="M 348.046875 53.421875 L 267.773438 53.421875 L 267.773438 13.285156 C 267.773438 5.898438 261.78125 -0.09375 254.394531 -0.09375 L 120.605469 -0.09375 C 113.21875 -0.09375 107.226562 5.898438 107.226562 13.285156 L 107.226562 53.421875 L 26.953125 53.421875 C 12.183594 53.421875 0.195312 65.410156 0.195312 80.179688 L 0.195312 294.242188 C 0.195312 309.011719 12.183594 321 26.953125 321 L 348.046875 321 C 362.816406 321 374.804688 309.011719 374.804688 294.242188 L 374.804688 80.179688 C 374.804688 65.410156 362.816406 53.421875 348.046875 53.421875 Z M 133.984375 26.664062 L 241.015625 26.664062 L 241.015625 53.421875 L 133.984375 53.421875 Z M 133.984375 26.664062 " fill-opacity="1" fill-rule="nonzero"/></g><g fill="#333533" fill-opacity="1"><g transform="translate(122.600855, 247.181988)"><g><path d="M 116.765625 0 L 95.296875 0 L 95.296875 -48.015625 L 19.578125 -48.015625 C 18.054688 -48.015625 16.640625 -48.300781 15.328125 -48.875 C 14.015625 -49.445312 12.878906 -50.210938 11.921875 -51.171875 C 10.960938 -52.128906 10.207031 -53.257812 9.65625 -54.5625 C 9.113281 -55.875 8.84375 -57.269531 8.84375 -58.75 L 8.84375 -117.5 L 30.15625 -117.5 L 30.15625 -69.484375 L 95.296875 -69.484375 L 95.296875 -117.5 L 116.765625 -117.5 Z M 116.765625 0 "/></g></g></g></svg>