<svg xmlns="http://www.w3.org/2000/svg" xmlns:xlink="http://www.w3.org/1999/xlink" width="500" zoomAndPan="magnify" viewBox="0 0 375 320.999992" height="428" preserveAspectRatio="xMidYMid meet" version="1.0"><defs><g/><clipPath id="a2cf55af89"><path d="M 0 0 L 375 0 L 375 320.90625 L 0 320.90625 Z M 0 0 " clip-rule="nonzero"/></clipPath></defs><g clip-path="url(#a2cf55af89)"><path fill="#f7f9fb" d="M 348.046875 53.421875 L 267.773438 53.421875 L 267.773438 13.285156 C 267.773438 5.898438 261.78125 -0.09375 254.394531 -0.09375 L 120.605469 -0.09375 C 113.21875 -0.09375 107.226562 5.898438 107.226562 13.285156 L 107.226562 53.421875 L 26.953125 53.421875 C 12.183594 53.421875 0.195312 65.410156 0.195312 80.179688 L 0.195312 294.242188 C 0.195312 309.011719 12.183594 321 26.953125 321 L 348.046875 321 C 362.816406 321 374.804688 309.011719 374.804688 294.242188 L 374.804688 80.179688 C 374.804688 65.410156 362.816406 53.421875 348.046875 53.421875 Z M 133.984375 26.664062 L 241.015625 26.664062 L 241.015625 53.421875 L 133.984375 53.421875 Z M 133.984375 26.664062 " fill-opacity="1" fill-rule="nonzero"/></g><g fill="#333533" fill-opacity="1"><g transform="translate(124.52273, 247.181988)"><g><path d="M 118.40625 -29.90625 C 118.40625 -27.882812 118.171875 -25.753906 117.703125 -23.515625 C 117.242188 -21.273438 116.507812 -19.046875 115.5 -16.828125 C 114.488281 -14.617188 113.203125 -12.503906 111.640625 -10.484375 C 110.085938 -8.460938 108.203125 -6.671875 105.984375 -5.109375 C 103.773438 -3.554688 101.222656 -2.316406 98.328125 -1.390625 C 95.429688 -0.460938 92.179688 0 88.578125 0 L 10.484375 0 L 10.484375 -21.296875 L 88.578125 -21.296875 C 91.253906 -21.296875 93.316406 -22.113281 94.765625 -23.75 C 96.210938 -25.394531 96.9375 -27.445312 96.9375 -29.90625 L 96.9375 -39.40625 C 96.9375 -42.195312 96.222656 -44.328125 94.796875 -45.796875 C 93.378906 -47.273438 91.25 -48.015625 88.40625 -48.015625 L 40.390625 -48.015625 C 34.878906 -48.015625 30.222656 -49.007812 26.421875 -51 C 22.628906 -53 19.554688 -55.5 17.203125 -58.5 C 14.859375 -61.507812 13.148438 -64.757812 12.078125 -68.25 C 11.015625 -71.75 10.484375 -75 10.484375 -78 L 10.484375 -117.5 L 108.65625 -117.5 L 108.65625 -96.203125 L 31.796875 -96.203125 L 31.796875 -78 C 31.796875 -75.164062 32.53125 -73.035156 34 -71.609375 C 35.476562 -70.191406 37.609375 -69.484375 40.390625 -69.484375 L 88.578125 -69.484375 C 91.523438 -69.484375 94.742188 -68.953125 98.234375 -67.890625 C 101.734375 -66.828125 104.972656 -65.101562 107.953125 -62.71875 C 110.929688 -60.34375 113.414062 -57.242188 115.40625 -53.421875 C 117.40625 -49.597656 118.40625 -44.925781 118.40625 -39.40625 Z M 118.40625 -29.90625 "/></g></g></g></svg>