<svg xmlns="http://www.w3.org/2000/svg" xmlns:xlink="http://www.w3.org/1999/xlink" width="500" zoomAndPan="magnify" viewBox="0 0 375 320.999992" height="428" preserveAspectRatio="xMidYMid meet" version="1.0"><defs><g/><clipPath id="05c3a4c897"><path d="M 0 0 L 375 0 L 375 320.90625 L 0 320.90625 Z M 0 0 " clip-rule="nonzero"/></clipPath></defs><g clip-path="url(#05c3a4c897)"><path fill="#f7f9fb" d="M 348.046875 53.421875 L 267.773438 53.421875 L 267.773438 13.285156 C 267.773438 5.898438 261.78125 -0.09375 254.394531 -0.09375 L 120.605469 -0.09375 C 113.21875 -0.09375 107.226562 5.898438 107.226562 13.285156 L 107.226562 53.421875 L 26.953125 53.421875 C 12.183594 53.421875 0.195312 65.410156 0.195312 80.179688 L 0.195312 294.242188 C 0.195312 309.011719 12.183594 321 26.953125 321 L 348.046875 321 C 362.816406 321 374.804688 309.011719 374.804688 294.242188 L 374.804688 80.179688 C 374.804688 65.410156 362.816406 53.421875 348.046875 53.421875 Z M 133.984375 26.664062 L 241.015625 26.664062 L 241.015625 53.421875 L 133.984375 53.421875 Z M 133.984375 26.664062 " fill-opacity="1" fill-rule="nonzero"/></g><g fill="#333533" fill-opacity="1"><g transform="translate(127.14773, 247.181988)"><g><path d="M 109.21875 -29.90625 C 109.21875 -24.382812 108.222656 -19.726562 106.234375 -15.9375 C 104.242188 -12.144531 101.757812 -9.054688 98.78125 -6.671875 C 95.800781 -4.296875 92.5625 -2.585938 89.0625 -1.546875 C 85.570312 -0.515625 82.320312 0 79.3125 0 L 10.984375 0 L 10.984375 -21.296875 L 79.3125 -21.296875 C 82.207031 -21.296875 84.351562 -22.035156 85.75 -23.515625 C 87.144531 -24.992188 87.84375 -27.125 87.84375 -29.90625 L 87.84375 -48.015625 L 10.984375 -48.015625 L 10.984375 -69.484375 L 87.84375 -69.484375 L 87.84375 -87.421875 C 87.84375 -93.273438 85 -96.203125 79.3125 -96.203125 L 10.984375 -96.203125 L 10.984375 -117.5 L 79.3125 -117.5 C 82.976562 -117.5 86.257812 -117.035156 89.15625 -116.109375 C 92.050781 -115.179688 94.601562 -113.9375 96.8125 -112.375 C 99.019531 -110.820312 100.914062 -109.035156 102.5 -107.015625 C 104.09375 -104.992188 105.378906 -102.875 106.359375 -100.65625 C 107.335938 -98.445312 108.054688 -96.207031 108.515625 -93.9375 C 108.984375 -91.675781 109.21875 -89.5625 109.21875 -87.59375 Z M 109.21875 -29.90625 "/></g></g></g></svg>