<svg xmlns="http://www.w3.org/2000/svg" xmlns:xlink="http://www.w3.org/1999/xlink" width="500" zoomAndPan="magnify" viewBox="0 0 375 320.999992" height="428" preserveAspectRatio="xMidYMid meet" version="1.0"><defs><g/><clipPath id="2b92b46bf2"><path d="M 0 0 L 375 0 L 375 320.90625 L 0 320.90625 Z M 0 0 " clip-rule="nonzero"/></clipPath></defs><g clip-path="url(#2b92b46bf2)"><path fill="#f7f9fb" d="M 348.046875 53.421875 L 267.773438 53.421875 L 267.773438 13.285156 C 267.773438 5.898438 261.78125 -0.09375 254.394531 -0.09375 L 120.605469 -0.09375 C 113.21875 -0.09375 107.226562 5.898438 107.226562 13.285156 L 107.226562 53.421875 L 26.953125 53.421875 C 12.183594 53.421875 0.195312 65.410156 0.195312 80.179688 L 0.195312 294.242188 C 0.195312 309.011719 12.183594 321 26.953125 321 L 348.046875 321 C 362.816406 321 374.804688 309.011719 374.804688 294.242188 L 374.804688 80.179688 C 374.804688 65.410156 362.816406 53.421875 348.046875 53.421875 Z M 133.984375 26.664062 L 241.015625 26.664062 L 241.015625 53.421875 L 133.984375 53.421875 Z M 133.984375 26.664062 " fill-opacity="1" fill-rule="nonzero"/></g><g fill="#ea526f" fill-opacity="1"><g transform="translate(157.746645, 246.250555)"><g><path d="M 46.453125 0 L 25.078125 0 L 25.078125 -96.203125 L 5.8125 -96.203125 L 5.8125 -117.5 L 46.453125 -117.5 Z M 46.453125 0 "/></g></g></g></svg>