<svg xmlns="http://www.w3.org/2000/svg" xmlns:xlink="http://www.w3.org/1999/xlink" width="500" zoomAndPan="magnify" viewBox="0 0 375 320.999992" height="428" preserveAspectRatio="xMidYMid meet" version="1.0"><defs><g/><clipPath id="2523eb2e9a"><path d="M 0 0 L 375 0 L 375 320.90625 L 0 320.90625 Z M 0 0 " clip-rule="nonzero"/></clipPath></defs><g clip-path="url(#2523eb2e9a)"><path fill="#f7f9fb" d="M 348.046875 53.421875 L 267.773438 53.421875 L 267.773438 13.285156 C 267.773438 5.898438 261.78125 -0.09375 254.394531 -0.09375 L 120.605469 -0.09375 C 113.21875 -0.09375 107.226562 5.898438 107.226562 13.285156 L 107.226562 53.421875 L 26.953125 53.421875 C 12.183594 53.421875 0.195312 65.410156 0.195312 80.179688 L 0.195312 294.242188 C 0.195312 309.011719 12.183594 321 26.953125 321 L 348.046875 321 C 362.816406 321 374.804688 309.011719 374.804688 294.242188 L 374.804688 80.179688 C 374.804688 65.410156 362.816406 53.421875 348.046875 53.421875 Z M 133.984375 26.664062 L 241.015625 26.664062 L 241.015625 53.421875 L 133.984375 53.421875 Z M 133.984375 26.664062 " fill-opacity="1" fill-rule="nonzero"/></g><g fill="#ea526f" fill-opacity="1"><g transform="translate(124.358668, 247.181988)"><g><path d="M 116.59375 0 L 8.6875 0 L 8.6875 -39.40625 C 8.6875 -41.425781 8.914062 -43.570312 9.375 -45.84375 C 9.84375 -48.113281 10.566406 -50.367188 11.546875 -52.609375 C 12.535156 -54.847656 13.804688 -56.976562 15.359375 -59 C 16.921875 -61.019531 18.804688 -62.804688 21.015625 -64.359375 C 23.234375 -65.921875 25.785156 -67.164062 28.671875 -68.09375 C 31.566406 -69.019531 34.847656 -69.484375 38.515625 -69.484375 L 86.53125 -69.484375 C 89.425781 -69.484375 91.566406 -70.207031 92.953125 -71.65625 C 94.347656 -73.101562 95.046875 -75.21875 95.046875 -78 L 95.046875 -87.421875 C 95.046875 -90.316406 94.335938 -92.503906 92.921875 -93.984375 C 91.503906 -95.460938 89.425781 -96.203125 86.6875 -96.203125 L 18.265625 -96.203125 L 18.265625 -117.5 L 86.6875 -117.5 C 90.289062 -117.5 93.539062 -117.035156 96.4375 -116.109375 C 99.332031 -115.179688 101.882812 -113.9375 104.09375 -112.375 C 106.3125 -110.820312 108.210938 -109.035156 109.796875 -107.015625 C 111.378906 -104.992188 112.675781 -102.875 113.6875 -100.65625 C 114.695312 -98.445312 115.429688 -96.207031 115.890625 -93.9375 C 116.359375 -91.675781 116.59375 -89.5625 116.59375 -87.59375 L 116.59375 -78 C 116.59375 -72.488281 115.597656 -67.832031 113.609375 -64.03125 C 111.617188 -60.238281 109.117188 -57.15625 106.109375 -54.78125 C 103.109375 -52.40625 99.875 -50.679688 96.40625 -49.609375 C 92.9375 -48.546875 89.695312 -48.015625 86.6875 -48.015625 L 38.515625 -48.015625 C 36.765625 -48.015625 35.367188 -47.769531 34.328125 -47.28125 C 33.296875 -46.789062 32.492188 -46.132812 31.921875 -45.3125 C 31.347656 -44.488281 30.921875 -43.554688 30.640625 -42.515625 C 30.367188 -41.484375 30.148438 -40.445312 29.984375 -39.40625 L 29.984375 -21.296875 L 116.59375 -21.296875 Z M 116.59375 0 "/></g></g></g></svg>